HIERARCHY
ROOT Hips
{
	OFFSET	0.000000	0.000000	0.000000
	CHANNELS 6 Xposition Yposition Zposition Zrotation Xrotation Yrotation
	JOINT LeftHip
	{
		OFFSET	4.740440	-3.195970	-0.322709
		CHANNELS 3 Zrotation Xrotation Yrotation
		JOINT LeftKnee
		{
			OFFSET	-1.605680	-15.592300	1.005510
			CHANNELS 3 Zrotation Xrotation Yrotation
			JOINT LeftAnkle
			{
				OFFSET	-0.632401	-16.421000	-1.413730
				CHANNELS 3 Zrotation Xrotation Yrotation
				End Site
				{
					OFFSET	0.008423	-2.933000	-1.776750
				}
			}
		}
	}
	JOINT RightHip
	{
		OFFSET	-4.740440	-3.195970	-0.322709
		CHANNELS 3 Zrotation Xrotation Yrotation
		JOINT RightKnee
		{
			OFFSET	1.605680	-15.592300	1.005510
			CHANNELS 3 Zrotation Xrotation Yrotation
			JOINT RightAnkle
			{
				OFFSET	0.632401	-16.421000	-1.413730
				CHANNELS 3 Zrotation Xrotation Yrotation
				End Site
				{
					OFFSET	-0.008423	-2.933000	-1.776750
				}
			}
		}
	}
	JOINT Chest
	{
		OFFSET	0.000000	3.468200	0.078401
		CHANNELS 3 Zrotation Xrotation Yrotation
		JOINT LeftCollar
		{
			OFFSET	3.857650	15.070700	-0.011583
			CHANNELS 3 Zrotation Xrotation Yrotation
			JOINT LeftShoulder
			{
				OFFSET	3.979720	-1.940530	-0.165223
				CHANNELS 3 Zrotation Xrotation Yrotation
				JOINT LeftElbow
				{
					OFFSET	0.615844	-10.986600	-0.673886
					CHANNELS 3 Zrotation Xrotation Yrotation
					JOINT LeftWrist
					{
						OFFSET	0.826843	-10.854500	1.034220
						CHANNELS 3 Zrotation Xrotation Yrotation
						End Site
						{
							OFFSET	-1.679080	-8.456540	0.936217
						}
					}
				}
			}
		}
		JOINT RightCollar
		{
			OFFSET	-3.857650	15.070700	-0.011583
			CHANNELS 3 Zrotation Xrotation Yrotation
			JOINT RightShoulder
			{
				OFFSET	-3.979720	-1.940530	-0.165223
				CHANNELS 3 Zrotation Xrotation Yrotation
				JOINT RightElbow
				{
					OFFSET	-0.615845	-10.986600	-0.673886
					CHANNELS 3 Zrotation Xrotation Yrotation
					JOINT RightWrist
					{
						OFFSET	-0.826843	-10.854500	1.034220
						CHANNELS 3 Zrotation Xrotation Yrotation
						End Site
						{
							OFFSET	1.679080	-8.456540	0.936217
						}
					}
				}
			}
		}
		JOINT Neck
		{
			OFFSET	0.000000	15.101400	0.055730
			CHANNELS 3 Zrotation Xrotation Yrotation
			JOINT Head
			{
				OFFSET	0.000000	4.185120	1.488260
				CHANNELS 3 Zrotation Xrotation Yrotation
				End Site
				{
					OFFSET	0.000000	7.773420	-0.106016
				}
			}
		}
	}
}
MOTION
Frames:     15
Frame Time: 0.016667
-5.320956	37.461670	-3.814434	1.233508	-11.246119	-10.775011	11.324924	-2.871031	5.233094	-3.252735	16.952354	8.918303	-10.452552	-0.419985	0.385810	-20.026737	5.099515	-4.044755	1.727427	13.969557	-6.634782	14.800335	-5.320044	5.235573	4.050765	13.591855	-0.750869	-4.129195	-1.366310	-1.771837	7.872004	1.669903	1.446550	36.860676	-126.814362	32.502769	30.142828	-27.211847	-26.651058	-14.814720	-9.357171	-1.126254	-6.061400	-25.429811	14.822098	-68.559059	-111.124840	-59.832726	-5.745136	-21.494886	8.723226	-9.151519	-1.355666	-11.954068	8.100374	10.888983	-18.330023	
-5.328546	37.459877	-3.842717	1.205080	-11.247544	-10.833357	11.350279	-2.866897	5.227698	-3.222292	16.879925	8.979526	-10.480043	-0.332422	0.386099	-19.992592	4.999265	-4.043717	1.743648	14.047531	-6.594793	14.769110	-5.327524	5.235964	4.171382	13.662943	-0.889404	-4.026364	-0.841981	-2.077935	6.684385	1.447648	1.571751	36.787952	-126.285515	31.628881	30.156507	-27.023710	-26.408302	-14.655795	-9.188983	-1.245572	-6.316238	-25.059406	14.508567	-68.763901	-110.935822	-59.999245	-5.874218	-21.507895	8.595531	-9.102466	-1.314542	-11.967246	7.970757	10.759258	-18.177887	
-5.334730	37.457222	-3.930740	1.124846	-11.289325	-11.017907	11.418117	-2.808624	5.256629	-3.150548	16.712839	9.121240	-10.543107	-0.127485	0.385777	-19.897600	4.768814	-4.025432	1.732591	14.174472	-6.444946	14.711658	-5.259710	5.200585	4.464942	13.885617	-1.194584	-4.134566	-0.657797	-2.014491	5.687560	1.404399	1.562618	36.175091	-124.690804	30.811161	30.157072	-26.580940	-25.888264	-14.105405	-8.632453	-1.659211	-7.185513	-23.961594	13.390573	-69.791916	-110.354759	-61.023582	-6.310720	-21.505545	8.158360	-8.820152	-1.189000	-12.050123	7.484204	10.368902	-17.711864	
-5.337835	37.457218	-3.953786	1.102280	-11.283651	-11.061825	11.452014	-2.833637	5.297740	-3.125673	16.685308	9.124644	-10.563067	-0.062541	0.385457	-19.861225	4.704562	-4.050245	1.721848	14.190611	-6.391036	14.699099	-5.230574	5.197443	4.569754	13.949481	-1.295047	-4.077876	-0.401552	-2.263830	4.854068	1.400130	1.580464	35.923611	-124.160065	29.893803	30.088308	-26.482199	-25.780266	-13.906013	-8.472382	-1.799968	-7.490575	-23.551241	12.982632	-70.258652	-110.146111	-61.452026	-6.481664	-21.509840	8.062664	-8.732572	-1.096690	-12.095301	7.337778	10.164730	-17.523899	
-5.335482	37.451973	-4.061216	0.992898	-11.465755	-11.150123	11.551208	-2.720542	5.328703	-3.063255	16.626312	9.135274	-10.615392	0.107816	0.384107	-19.725584	4.654095	-4.199675	1.614535	14.287501	-6.117658	14.645543	-5.124427	5.176314	4.919288	14.397970	-1.750698	-4.227261	-0.397868	-2.241135	4.177083	1.392475	1.607738	35.358013	-122.512917	28.898981	29.766176	-26.339352	-25.618914	-13.237212	-8.195082	-2.135464	-8.467517	-22.112213	11.767294	-71.796822	-109.394402	-62.672791	-6.927868	-21.608309	8.089051	-8.461520	-1.000632	-12.001536	6.837618	9.574641	-17.151625	
-5.335270	37.450977	-4.095846	0.961470	-11.555851	-11.153974	11.569855	-2.650182	5.312724	-3.044612	16.605837	9.134277	-10.629707	0.154461	0.383319	-19.690487	4.686436	-4.256016	1.580698	14.308438	-6.038201	14.631457	-5.091200	5.178140	5.141471	14.627362	-2.124416	-4.264862	-0.303682	-2.285089	3.664467	1.346810	1.572401	35.015896	-121.912361	28.097176	29.674509	-26.328804	-25.619860	-13.091623	-8.188024	-2.077030	-8.927709	-20.780935	10.639722	-73.031067	-108.853951	-63.610672	-6.431890	-22.839172	8.106907	-8.336320	-0.878788	-11.844802	6.585315	9.209070	-16.986591	
-5.327792	37.448635	-4.187261	0.893185	-11.774595	-11.320378	11.609405	-2.434156	5.425877	-2.967069	16.483192	9.135925	-10.683496	0.329810	0.383181	-19.659758	4.641372	-4.151347	1.558065	14.409997	-5.942288	14.574135	-5.002937	5.157647	5.319739	14.991534	-2.345717	-4.216395	-0.228143	-2.335876	3.258249	1.288050	1.538348	34.662071	-120.207359	27.169174	29.271347	-26.288376	-25.599129	-12.289395	-7.709406	-2.468088	-9.686686	-19.932652	10.054684	-74.919632	-108.254868	-65.167198	-7.629516	-21.786730	7.992211	-8.324944	-1.057648	-11.733584	6.459579	9.201158	-16.949200	
-5.326019	37.449081	-4.215211	0.897367	-11.788921	-11.392819	11.606318	-2.409017	5.495697	-2.936466	16.426033	9.138756	-10.703394	0.394748	0.383132	-19.663221	4.552074	-4.117004	1.546006	14.449173	-5.909561	14.557882	-4.966952	5.150321	5.381344	15.066144	-2.460658	-4.058745	-0.137729	-2.550972	3.055720	1.214295	1.499584	34.161026	-119.448074	26.421110	29.151798	-26.343060	-25.587780	-12.033232	-7.574826	-2.541739	-9.963791	-19.349792	9.649522	-76.094681	-107.955490	-66.224846	-7.866138	-21.794050	7.856043	-8.340323	-1.508919	-11.727674	6.353368	9.569173	-16.921745	
-5.305372	37.453335	-4.285730	0.923282	-11.810621	-11.631910	11.581294	-2.363731	5.650768	-2.863046	16.267920	9.233773	-10.777225	0.573024	0.374989	-19.679188	4.304359	-4.002450	1.443272	14.492878	-5.803741	14.567268	-4.875148	5.131573	5.489557	15.210272	-2.809592	-3.994480	-0.214841	-2.387762	3.062290	1.187992	1.584696	34.501942	-117.364334	26.105953	28.772861	-26.460056	-25.619904	-11.216655	-7.118884	-2.670088	-10.749783	-17.531183	8.354938	-81.056175	-107.082527	-70.967445	-8.664265	-21.797459	7.327157	-8.078224	-2.092219	-11.244674	6.093609	9.980634	-17.157858	
-5.297423	37.455746	-4.313437	0.930767	-11.816402	-11.692309	11.572409	-2.356769	5.669889	-2.840304	16.215942	9.279666	-10.813391	0.627436	0.366747	-19.672615	4.235180	-4.011179	1.389756	14.486488	-5.741914	14.572001	-4.843523	5.124165	5.513751	15.239455	-2.942986	-3.927969	-0.249518	-2.380366	3.142630	1.177745	1.650181	34.704308	-116.512428	26.100710	28.613211	-26.480793	-25.633495	-10.936692	-6.959378	-2.713293	-10.970772	-16.912096	7.946195	-83.189850	-106.775764	-73.006851	-8.976704	-21.772268	7.140775	-7.974697	-1.943175	-11.084071	6.107661	9.766470	-17.317621	
-5.285692	37.471920	-4.366820	1.003717	-11.760434	-11.909809	11.465595	-2.293857	5.676934	-2.758339	15.926840	9.524200	-10.891947	0.821758	0.362466	-19.668552	4.039356	-4.061346	1.204995	14.341806	-5.518076	14.590841	-4.672538	5.105071	5.505227	15.232126	-3.192692	-3.637734	-0.481198	-2.363166	3.559798	1.144682	1.784566	36.267372	-113.435257	27.170708	27.999050	-26.599255	-25.761765	-10.094527	-6.454132	-2.917209	-11.476231	-15.019090	6.833298	-91.240585	-105.795250	-80.439339	-9.899755	-21.852118	6.874928	-7.636747	-1.744540	-10.885583	5.796018	9.565358	-17.156338	
-5.292776	37.481781	-4.382841	1.023513	-11.713849	-11.919289	11.433372	-2.313960	5.586162	-2.726851	15.813043	9.641345	-10.934304	0.899652	0.359464	-19.592562	4.036558	-4.322527	1.043997	14.212678	-5.269788	14.596005	-4.621967	5.098302	5.558667	15.206587	-3.463060	-3.569919	-0.615328	-2.245721	3.782996	1.125715	1.860355	37.298779	-112.212639	28.097656	27.798651	-26.608541	-25.745605	-9.835337	-6.319612	-2.872576	-11.572557	-14.380194	6.489993	-94.614532	-105.488541	-83.462234	-10.233971	-21.950161	6.807791	-7.356432	-1.910333	-10.716184	5.548100	9.819508	-17.170603	
-5.274275	37.503395	-4.420395	1.115892	-11.567924	-12.092239	11.272552	-2.254549	5.398727	-2.600547	15.337214	9.995752	-11.041709	1.169245	0.424245	-19.613323	3.851272	-4.333579	0.919017	13.937016	-5.168481	14.616341	-4.406269	5.081953	5.493242	15.078966	-3.449890	-3.299696	-1.019021	-2.565708	4.707014	1.023714	2.284824	43.136238	-108.123764	33.847523	27.255688	-26.303028	-25.483284	-9.027648	-5.782220	-3.318364	-11.675675	-12.595150	5.434796	72.560501	-75.034462	84.932869	-11.324710	-22.220200	6.463701	-7.079543	-1.941715	-10.555699	5.323768	10.041233	-17.144770	
-5.288536	37.520012	-4.429913	1.161560	-11.510960	-12.158133	11.203890	-2.239016	5.339324	-2.547478	15.149584	10.105340	-11.085760	1.279457	0.466055	-19.563555	3.813289	-4.268403	0.826735	13.795356	-5.204592	14.618685	-4.399860	5.072865	5.463343	15.028117	-3.463812	-3.234041	-1.194260	-2.664565	5.048266	0.995404	2.444949	46.366337	-106.635124	37.085106	27.073740	-26.131023	-25.229113	-8.768136	-5.619999	-3.449419	-11.650389	-12.043740	5.116383	67.446014	-75.009148	80.252960	-11.752782	-22.350777	6.298102	-6.957202	-1.900248	-10.482098	5.258366	10.143368	-17.151472	
-5.289477	37.548172	-4.485064	1.241799	-11.309469	-12.172728	10.946180	-2.221149	5.118309	-2.205431	14.491396	10.189590	-11.242659	1.665400	0.684555	-19.450478	3.658407	-4.274236	0.639480	13.451078	-5.222126	14.669047	-4.268016	4.960151	5.353957	14.729680	-3.640347	-2.944963	-1.659550	-2.909499	6.109062	0.780895	2.700286	63.952877	-102.188805	55.012375	26.482779	-25.486414	-24.540358	-7.956688	-5.107818	-3.888887	-11.387113	-10.538945	4.245511	51.001106	-74.068451	65.202271	-12.992908	-22.656462	5.877766	-6.455672	-1.762709	-10.268044	4.941140	10.653235	-17.067585	
